HIERARCHY
ROOT root
{
	OFFSET	0	13.1	24.9
	CHANNELS 6  Xposition Yposition Zposition Xrotation Yrotation Zrotation
	JOINT spine_1
	{
		OFFSET	0	9.99999	0
		CHANNELS 3  Xrotation Yrotation Zrotation
		JOINT spine_2
		{
			OFFSET	0	112	-10
			CHANNELS 3  Xrotation Yrotation Zrotation
			JOINT spine_3
			{
				OFFSET	0	206.5	19.3
				CHANNELS 3  Xrotation Yrotation Zrotation
				JOINT spine_4
				{
					OFFSET	0	110.4	14.6
					CHANNELS 3  Xrotation Yrotation Zrotation
					JOINT neck_1
					{
						OFFSET	0	71.8	-50.3
						CHANNELS 3  Xrotation Yrotation Zrotation
						JOINT neck_2
						{
							OFFSET	0	86.2	-25.8
							CHANNELS 3  Xrotation Yrotation Zrotation
							JOINT head_ee
							{
								OFFSET	0	179.8	-8.7
								CHANNELS 3  Xrotation Yrotation Zrotation
								End Site
								{
									OFFSET	1	0	0
								}
							}
						}
					}
					JOINT left_clavicle
					{
						OFFSET	-43.2	22.4	-70.8
						CHANNELS 3  Xrotation Yrotation Zrotation
						JOINT left_shoulder
						{
							OFFSET	-93.9	-5.79999	48.7
							CHANNELS 3  Xrotation Yrotation Zrotation
							JOINT left_elbow
							{
								OFFSET	-291.4	-30.8	15.2
								CHANNELS 3  Xrotation Yrotation Zrotation
								JOINT left_lowarm_twist
								{
									OFFSET	-110.7	-3.89999	13.6
									CHANNELS 3  Xrotation Yrotation Zrotation
									JOINT left_hand
									{
										OFFSET	-110.7	-3.89999	13.6
										CHANNELS 3  Xrotation Yrotation Zrotation
										JOINT left_ee
										{
											OFFSET	-80.8	-5.10001	12.1
											CHANNELS 3  Xrotation Yrotation Zrotation
											End Site
											{
												OFFSET	1	0	0
											}
										}
									}
								}
							}
						}
					}
					JOINT right_clavicle
					{
						OFFSET	43.2	22.4	-70.8
						CHANNELS 3  Xrotation Yrotation Zrotation
						JOINT right_shoulder
						{
							OFFSET	93.9	-5.79999	48.7
							CHANNELS 3  Xrotation Yrotation Zrotation
							JOINT right_elbow
							{
								OFFSET	291.4	-30.8	15.2
								CHANNELS 3  Xrotation Yrotation Zrotation
								JOINT right_lowarm_twist
								{
									OFFSET	110.7	-3.89999	13.6
									CHANNELS 3  Xrotation Yrotation Zrotation
									JOINT right_hand
									{
										OFFSET	110.7	-3.89999	13.6
										CHANNELS 3  Xrotation Yrotation Zrotation
										JOINT right_ee
										{
											OFFSET	80.8	-5.10001	12.1
											CHANNELS 3  Xrotation Yrotation Zrotation
											End Site
											{
												OFFSET	1	0	0
											}
										}
									}
								}
							}
						}
					}
				}
			}
		}
	}
	JOINT left_hip
	{
		OFFSET	-82.8	-127.5	0.300001
		CHANNELS 3  Xrotation Yrotation Zrotation
		JOINT left_knee
		{
			OFFSET	-28.2	-396.7	2.2
			CHANNELS 3  Xrotation Yrotation Zrotation
			JOINT left_ankle
			{
				OFFSET	-11.7	-411.3	35.4
				CHANNELS 3  Xrotation Yrotation Zrotation
				JOINT left_toes
				{
					OFFSET	0	-60	-88.6
					CHANNELS 3  Xrotation Yrotation Zrotation
					JOINT left_foot_ee
					{
						OFFSET	-22.5	-16.5	-42.2
						CHANNELS 3  Xrotation Yrotation Zrotation
						End Site
						{
							OFFSET	1	0	0
						}
					}
				}
			}
		}
	}
	JOINT right_hip
	{
		OFFSET	82.8	-127.5	0.300001
		CHANNELS 3  Xrotation Yrotation Zrotation
		JOINT right_knee
		{
			OFFSET	28.2	-396.7	2.2
			CHANNELS 3  Xrotation Yrotation Zrotation
			JOINT right_ankle
			{
				OFFSET	11.7	-411.3	35.4
				CHANNELS 3  Xrotation Yrotation Zrotation
				JOINT right_toes
				{
					OFFSET	0	-60	-88.6
					CHANNELS 3  Xrotation Yrotation Zrotation
					JOINT right_foot_ee
					{
						OFFSET	22.5	-16.5	-42.2
						CHANNELS 3  Xrotation Yrotation Zrotation
						End Site
						{
							OFFSET	1	0	0
						}
					}
				}
			}
		}
	}
}
MOTION
Frames: 9
Frame Time: 0.02
1191.78689414 747.394 -1746.84605171 3.17460916741 42.1356568265 -5.02891160897 -1.525 0.406814 0.78717 -1.52473 0.355902 0.811459 -1.51925 0.15435 0.872526 -1.52019 0.290207 0.837203 2.40544 2.45755 -3.50525 2.51125 7.2681 -3.69593 -0.0 0.0 -0.0 11.2033 0.986259 22.0953 -27.2537 -6.06406 52.8327 0.52441 -14.5625 0.0670044 72.87 -3.04349 -8.15789 -0.681711 5.81804 -2.03074 -0.0 0.0 -0.0 11.1208 12.0131 -22.2843 -9.08167 25.7601 -49.9828 0.854165 22.9344 -0.173276 76.4501 3.43568 8.39713 -1.42779 -11.2046 4.45598 0.0 0.0 0.0 20.262 -2.23639 0.674137 -65.6206 -2.83648 9.11426 34.2185 25.3458 -4.58809 38.6156 -0.0 -0.0 -0.0 0.0 -0.0 11.0943 -28.2911 5.36878 -20.3649 -0.291122 -3.09517 39.3465 6.75555 4.9036 33.8671 -0.0 -0.0 0.0 0.0 0.0 
1184.04346232 750.701 -1759.72912114 3.85049433361 43.2803921036 -6.27302264312 -1.69805 0.373951 0.617927 -1.6979 0.333874 0.640469 -1.69387 0.171155 0.701694 -1.69445 0.279824 0.66586 1.06528 2.13733 -4.38056 1.18802 7.41863 -4.58169 -0.0 0.0 -0.0 11.3218 1.50231 22.3033 -27.5679 -6.02819 52.6807 0.510236 -14.185 0.0634857 72.8513 -3.04148 -8.15658 -0.725995 6.22879 -2.14224 -0.0 0.0 -0.0 11.2075 12.7266 -22.4648 -7.65952 26.2144 -48.0135 0.985374 26.0177 -0.227657 76.6771 3.46104 8.41147 -1.2678 -11.1069 3.48076 0.0 0.0 0.0 24.3741 -2.47553 0.637753 -66.4106 -2.93051 9.19198 34.2279 25.2595 -4.58665 38.5326 -0.0 -0.0 -0.0 0.0 -0.0 9.5851 -28.4131 7.8634 -19.9714 -0.295979 -3.03498 39.47 6.2622 4.90584 33.9951 -0.0 -0.0 0.0 0.0 0.0 
1183.70109806 750.701 -1759.50258715 3.85486390422 43.3492105995 -6.27939221959 -1.69805 0.373951 0.617927 -1.6979 0.333874 0.640469 -1.69387 0.171155 0.701694 -1.69445 0.279824 0.66586 1.06528 2.13733 -4.38056 1.18802 7.41863 -4.58169 -0.0 0.0 -0.0 11.3218 1.50231 22.3033 -27.5679 -6.02819 52.6807 0.510236 -14.185 0.0634857 72.8513 -3.04148 -8.15658 -0.725995 6.22879 -2.14224 -0.0 0.0 -0.0 11.2075 12.7266 -22.4648 -7.65952 26.2144 -48.0135 0.985374 26.0177 -0.227657 76.6771 3.46104 8.41147 -1.2678 -11.1069 3.48076 0.0 0.0 0.0 24.3741 -2.47553 0.637753 -66.4106 -2.93051 9.19198 34.2279 25.2595 -4.58665 38.5326 -0.0 -0.0 -0.0 0.0 -0.0 9.5851 -28.4131 7.8634 -19.9714 -0.295979 -3.03498 39.47 6.2622 4.90584 33.9951 -0.0 -0.0 0.0 0.0 0.0 
1139.68189848 745.434 -1775.12238364 6.58518169087 48.7657646226 -9.62251922857 -2.52082 0.32115 0.693494 -2.5206 0.276372 0.712523 -2.51674 0.0872007 0.759252 -2.51748 0.206013 0.735954 1.25748 2.65005 -2.37376 1.32227 6.65677 -2.35372 -0.0 0.0 -0.0 10.982 2.08468 21.5507 -28.216 -5.67803 52.7272 0.482636 -13.4463 0.0568946 74.3399 -3.20269 -8.25907 -1.27207 9.28592 -4.33266 -0.0 0.0 -0.0 11.2151 13.4651 -22.4638 -6.50891 26.6455 -44.3388 1.15969 29.8754 -0.309398 76.4761 3.43858 8.39878 -0.616601 -10.2868 -0.313075 0.0 0.0 0.0 31.071 -1.42843 3.36915 -64.9719 -2.7601 9.0495 32.4398 27.2398 -4.447 39.5067 -0.0 -0.0 -0.0 0.0 -0.0 6.89332 -26.4401 9.07289 -19.2876 -0.303435 -2.93033 39.7747 5.99121 4.92778 34.9357 -0.0 -0.0 0.0 0.0 0.0 
1128.42765148 748.584 -1779.49478513 6.46359926776 50.6358848052 -10.5599522538 -2.52478 0.259773 0.900299 -2.52435 0.201961 0.915003 -2.5205 -0.0360681 0.936331 -2.5217 0.112254 0.930277 1.30939 2.81085 -1.46724 1.35449 6.18479 -1.3506 -0.0 0.0 -0.0 10.8424 2.25193 21.2497 -28.4543 -5.56018 52.7594 0.474677 -13.2324 0.0550584 75.0391 -3.27933 -8.30576 -1.45511 10.5143 -4.94822 -0.0 0.0 -0.0 11.0162 13.7702 -22.0081 -6.31961 26.6961 -42.787 1.30842 32.9478 -0.386937 76.4167 3.43195 8.39501 -0.359611 -9.79826 -1.75198 0.0 0.0 0.0 32.0827 -1.06856 4.10802 -62.538 -2.48018 8.79897 32.6811 27.135 -4.47105 40.0055 -0.0 -0.0 -0.0 0.0 -0.0 6.33368 -25.6202 9.73689 -18.7118 -0.308744 -2.84214 39.8044 6.03545 4.93108 35.3831 -0.0 -0.0 0.0 0.0 0.0 
1108.23651346 747.971 -1797.82876132 4.90230203135 50.9138782543 -10.1713574768 -2.3365 0.266391 1.21009 -2.3357 0.188856 1.22458 -2.33065 -0.122986 1.23294 -2.33276 0.0732624 1.23689 0.556485 2.56952 -1.49725 0.594679 5.79525 -1.3672 -0.0 0.0 -0.0 10.531 2.12632 20.6198 -28.2833 -5.69095 54.2447 0.46577 -12.9926 0.0530377 77.0938 -3.50775 -8.43753 -1.9979 14.9002 -6.30427 -0.0 0.0 -0.0 10.9658 14.1664 -21.8823 -5.36893 26.9209 -40.6595 1.55511 37.6064 -0.529527 75.6738 3.34938 8.34734 0.32969 -6.96058 -5.05271 0.0 0.0 0.0 34.3036 -0.206627 5.35816 -48.4815 -1.0925 7.14193 29.7026 26.6931 -4.11588 37.1662 -0.0 -0.0 -0.0 0.0 -0.0 3.43177 -24.4694 8.97432 -16.979 -0.319371 -2.5765 39.7556 5.58534 4.91954 37.23 -0.0 -0.0 0.0 0.0 0.0 
1094.64314087 746.806 -1801.72998896 4.81504951028 51.0846715156 -10.3975944088 -2.38496 0.276804 1.22626 -2.38415 0.198219 1.24138 -2.37879 -0.119165 1.25145 -2.38097 0.0799569 1.25456 0.0366961 2.30868 -1.9773 0.0787632 5.73077 -1.88557 -0.0 0.0 -0.0 10.3001 2.01191 20.1554 -28.2454 -5.70895 54.9684 0.459754 -12.8304 0.0516935 78.1769 -3.63001 -8.50368 -2.29742 17.3501 -6.93935 -0.0 0.0 -0.0 10.9035 14.1109 -21.7443 -5.01946 26.8083 -39.8099 1.64731 39.2124 -0.586816 75.1643 3.29311 8.31402 0.679645 -5.20442 -6.65052 0.0 0.0 0.0 34.9766 0.0736739 5.64221 -40.0548 -0.470257 6.00595 27.5372 26.4376 -3.85104 34.9744 -0.0 -0.0 -0.0 0.0 -0.0 2.22061 -23.8543 9.03323 -15.7509 -0.322036 -2.38809 39.7252 5.23479 4.91143 38.3053 -0.0 -0.0 0.0 0.0 0.0 
1077.91300748 747.468 -1810.07210729 4.91523654815 50.9907574408 -9.43587622543 -2.36305 0.280525 1.22752 -2.36224 0.201853 1.24288 -2.3568 -0.11554 1.25385 -2.35898 0.0839161 1.25636 -0.34001 2.12689 -2.33693 -0.294087 5.70034 -2.27129 -0.0 0.0 -0.0 10.2491 2.17575 20.0405 -28.1017 -5.7924 55.5649 0.456468 -12.7417 0.0509663 79.1933 -3.74585 -8.56364 -2.51284 19.0677 -7.36955 -0.0 0.0 -0.0 11.008 13.9068 -21.9854 -4.48702 26.7855 -39.5359 1.72238 40.4679 -0.634915 74.82 3.25526 8.29123 0.975999 -3.47425 -7.93108 0.0 0.0 0.0 35.5786 0.333973 5.96393 -31.9028 -0.0335075 4.83313 26.389 26.1051 -3.70326 33.4959 -0.0 -0.0 -0.0 0.0 -0.0 0.0830528 -23.8303 8.96282 -14.8547 -0.321433 -2.25059 39.7079 4.92063 4.90519 39.0714 -0.0 -0.0 0.0 0.0 0.0 
1075.35022776 747.468 -1807.80344709 4.96236711958 51.4291236269 -9.49634248556 -2.36305 0.280525 1.22752 -2.36224 0.201853 1.24288 -2.3568 -0.11554 1.25385 -2.35898 0.0839161 1.25636 -0.34001 2.12689 -2.33693 -0.294087 5.70034 -2.27129 -0.0 0.0 -0.0 10.2491 2.17575 20.0405 -28.1017 -5.7924 55.5649 0.456468 -12.7417 0.0509663 79.1933 -3.74585 -8.56364 -2.51284 19.0677 -7.36955 -0.0 0.0 -0.0 11.008 13.9068 -21.9854 -4.48702 26.7855 -39.5359 1.72238 40.4679 -0.634915 74.82 3.25526 8.29123 0.975999 -3.47425 -7.93108 0.0 0.0 0.0 35.5786 0.333973 5.96393 -31.9028 -0.0335075 4.83313 26.389 26.1051 -3.70326 33.4959 -0.0 -0.0 -0.0 0.0 -0.0 0.0830528 -23.8303 8.96282 -14.8547 -0.321433 -2.25059 39.7079 4.92063 4.90519 39.0714 -0.0 -0.0 0.0 0.0 0.0 
